<?xml version="1.0" encoding="UTF-8" standalone="no"?>
<!-- Created with Inkscape (http://www.inkscape.org/) -->

<svg
   xmlns:dc="http://purl.org/dc/elements/1.1/"
   xmlns:cc="http://creativecommons.org/ns#"
   xmlns:rdf="http://www.w3.org/1999/02/22-rdf-syntax-ns#"
   xmlns:svg="http://www.w3.org/2000/svg"
   xmlns="http://www.w3.org/2000/svg"
   version="1.1"
   width="100%"
   height="100%"
   viewBox="0 0 58 58"
   id="Capa_1"
   xml:space="preserve"><metadata
   id="metadata3913"><rdf:RDF><cc:Work
       rdf:about=""><dc:format>image/svg+xml</dc:format><dc:type
         rdf:resource="http://purl.org/dc/dcmitype/StillImage" /><dc:title></dc:title></cc:Work></rdf:RDF></metadata><defs
   id="defs3911" />
<g
   id="g3849">
	<polygon
   points="52,29.308 29,41.99 6,29.308 6,20.413 0,25.999 0,58 58,58 58,25.999 52,20.413 "
   id="polygon3851"
   style="fill:#48a0dc" />
	<path
   d="m 39.741,9 -8.88,-8.267 c -1.049,-0.976 -2.674,-0.976 -3.723,0 L 18.259,9 h 21.482 z"
   id="path3853"
   style="fill:#48a0dc" />
	<path
   d="M 0.091,26.05 57.602,57.761 C 57.569,57.889 57.573,57.872 57.54,58 H 0.129 C 0.058,58 0,57.942 0,57.871 L 0,26.104 C 0,26.057 0.05,26.027 0.091,26.05 z"
   id="path3855"
   style="fill:#556080" />
	<path
   d="M 57.909,26.05 29,41.99 57.602,57.761 C 57.569,57.888 57.573,57.873 57.54,58 h 0.331 C 57.942,58 58,57.942 58,57.871 V 26.103 c 0,-0.046 -0.05,-0.076 -0.091,-0.053 z"
   id="path3857"
   style="fill:#7383bf" />
	<g
   id="g3859">
		<polygon
   points="52,29.308 52,9 6,9 6,29.308 29,41.99 "
   id="polygon3861"
   style="fill:#cfcfcf;fill-opacity:1" />
	</g>
	<path
   d="m 32,17 h -6 c -0.553,0 -1,-0.447 -1,-1 0,-0.553 0.447,-1 1,-1 h 6 c 0.553,0 1,0.447 1,1 0,0.553 -0.447,1 -1,1 z"
   id="path3863"
   style="fill:#bab395" />
	<path
   d="m 41,32 h -7 c -0.553,0 -1,-0.447 -1,-1 0,-0.553 0.447,-1 1,-1 h 7 c 0.553,0 1,0.447 1,1 0,0.553 -0.447,1 -1,1 z"
   id="path3865"
   style="fill:#bab395" />
	<path
   d="m 21,24 h -5 c -0.553,0 -1,-0.447 -1,-1 0,-0.553 0.447,-1 1,-1 h 5 c 0.553,0 1,0.447 1,1 0,0.553 -0.447,1 -1,1 z"
   id="path3867"
   style="fill:#bab395" />
	<path
   d="m 37,24 h -8 c -0.553,0 -1,-0.447 -1,-1 0,-0.553 0.447,-1 1,-1 h 8 c 0.553,0 1,0.447 1,1 0,0.553 -0.447,1 -1,1 z"
   id="path3869"
   style="fill:#bab395" />
	<path
   d="M 25,24 C 24.74,24 24.479,23.89 24.29,23.71 24.109,23.519 24,23.259 24,23 c 0,-0.271 0.109,-0.521 0.29,-0.71 0.37,-0.37 1.05,-0.37 1.42,0 0.18,0.189 0.29,0.439 0.29,0.71 0,0.26 -0.11,0.52 -0.29,0.71 C 25.52,23.889 25.26,24 25,24 z"
   id="path3871"
   style="fill:#bab395" />
	<path
   d="M 30,32 H 20 c -0.553,0 -1,-0.447 -1,-1 0,-0.553 0.447,-1 1,-1 h 10 c 0.553,0 1,0.447 1,1 0,0.553 -0.447,1 -1,1 z"
   id="path3873"
   style="fill:#bab395" />
	<path
   d="M 16,32 C 15.74,32 15.479,31.899 15.29,31.71 15.109,31.519 15,31.259 15,31 c 0,-0.271 0.1,-0.521 0.29,-0.71 0.38,-0.37 1.05,-0.37 1.42,0 0.189,0.2 0.29,0.45 0.29,0.71 0,0.26 -0.11,0.52 -0.29,0.71 C 16.52,31.889 16.26,32 16,32 z"
   id="path3875"
   style="fill:#bab395" />
	<path
   d="M 41,24 C 40.74,24 40.479,23.89 40.29,23.71 40.109,23.519 40,23.259 40,23 c 0,-0.271 0.109,-0.521 0.29,-0.71 0.37,-0.37 1.04,-0.37 1.42,0 0.18,0.189 0.29,0.45 0.29,0.71 0,0.26 -0.11,0.52 -0.29,0.71 C 41.52,23.889 41.26,24 41,24 z"
   id="path3877"
   style="fill:#bab395" />
</g>
<g
   id="g3879">
</g>
<g
   id="g3881">
</g>
<g
   id="g3883">
</g>
<g
   id="g3885">
</g>
<g
   id="g3887">
</g>
<g
   id="g3889">
</g>
<g
   id="g3891">
</g>
<g
   id="g3893">
</g>
<g
   id="g3895">
</g>
<g
   id="g3897">
</g>
<g
   id="g3899">
</g>
<g
   id="g3901">
</g>
<g
   id="g3903">
</g>
<g
   id="g3905">
</g>
<g
   id="g3907">
</g>
</svg>