<?xml version="1.0" encoding="UTF-8" standalone="no"?>
<!-- Created with Inkscape (http://www.inkscape.org/) -->

<svg
   xmlns:dc="http://purl.org/dc/elements/1.1/"
   xmlns:cc="http://creativecommons.org/ns#"
   xmlns:rdf="http://www.w3.org/1999/02/22-rdf-syntax-ns#"
   xmlns:svg="http://www.w3.org/2000/svg"
   xmlns="http://www.w3.org/2000/svg"
   version="1.1"
   width="100%"
   height="100%"
   viewBox="0 0 78.666 78.666"
   id="Capa_1"
   xml:space="preserve"><metadata
   id="metadata5123"><rdf:RDF><cc:Work
       rdf:about=""><dc:format>image/svg+xml</dc:format><dc:type
         rdf:resource="http://purl.org/dc/dcmitype/StillImage" /><dc:title></dc:title></cc:Work></rdf:RDF></metadata><defs
   id="defs5121" />
<g
   id="g5079">
	<path
   d="m 9.49,78.666292 c -1.494,0 -2.943,-0.273043 -4.31,-0.811166 L 2.067,76.629845 4.459,74.053 C 7.625,70.642236 8.424,66.708138 8.476,63.761546 3.004,56.859243 0,48.248142 0,39.416333 -0.001,17.774246 17.644,0.16637287 39.332,0.16637287 c 21.688,0 39.334,17.60787313 39.334,39.24996013 0,21.640949 -17.646,39.247684 -39.334,39.247684 -6.457,0 -12.827,-1.591614 -18.504,-4.615567 -2.139,1.723584 -6.46,4.617842 -11.338,4.617842 z"
   id="path5635"
   style="fill:#1976d2;fill-opacity:1" />
	
	
	
<g
   transform="scale(1.0000063,0.9999937)"
   id="text3255"
   style="font-size:28px;font-style:normal;font-variant:normal;font-weight:200;font-stretch:normal;text-align:start;line-height:125%;letter-spacing:0px;word-spacing:0px;writing-mode:lr-tb;text-anchor:start;fill:#ffffff;fill-opacity:1;stroke:none;font-family:Roboto Thin;-inkscape-font-specification:'Roboto Thin, Ultra-Light'"><g
     transform="scale(0.9999937,1.0000063)"
     id="text4134"
     style="font-weight:300;fill:#ffffff;font-family:Roboto Light;-inkscape-font-specification:'Roboto Light, Light'"><path
       d="m 24.375969,44.391594 c -1.4e-5,-1.102859 -0.387383,-1.975579 -1.162109,-2.618164 -0.774752,-0.64257 -2.192068,-1.253247 -4.251954,-1.832031 -2.059902,-0.578766 -3.563806,-1.209951 -4.511718,-1.893555 -1.348961,-0.966134 -2.02344,-2.23306 -2.023438,-3.800781 -2e-6,-1.522119 0.626625,-2.759423 1.879883,-3.711914 1.25325,-0.952455 2.855137,-1.428691 4.805664,-1.428711 1.321605,2e-5 2.504221,0.255228 3.547852,0.765625 1.043606,0.510435 1.852525,1.221372 2.426757,2.132812 0.574204,0.911475 0.861313,1.92775 0.861329,3.048828 l -1.695313,0 c -1.4e-5,-1.358057 -0.464857,-2.449527 -1.394531,-3.274414 -0.929699,-0.824851 -2.178396,-1.237286 -3.746094,-1.237304 -1.522142,1.8e-5 -2.734381,0.339536 -3.636719,1.018554 -0.902347,0.679054 -1.353519,1.565446 -1.353515,2.65918 -4e-6,1.011733 0.405595,1.836602 1.216797,2.474609 0.811192,0.638033 2.110019,1.200858 3.896484,1.688477 1.786448,0.48764 3.139962,0.993499 4.060547,1.517578 0.920559,0.524097 1.613267,1.150724 2.078125,1.879883 0.464828,0.729173 0.69725,1.590501 0.697265,2.583984 -1.5e-5,1.567712 -0.626642,2.825523 -1.879882,3.773438 -1.253268,0.947917 -2.905285,1.421874 -4.956055,1.421875 -1.403653,-10e-7 -2.691087,-0.250651 -3.862305,-0.751953 -1.171227,-0.501302 -2.059898,-1.203124 -2.666015,-2.105469 -0.606122,-0.90234 -0.909181,-1.936845 -0.90918,-3.103516 l 1.681641,0 c -3e-6,1.40365 0.524085,2.511071 1.572265,3.322266 1.048172,0.811199 2.442702,1.216798 4.183594,1.216797 1.549469,1e-6 2.793608,-0.341796 3.732422,-1.025391 0.938789,-0.683591 1.408189,-1.590491 1.408203,-2.720703 z"
       id="path4139" /><path
       d="m 31.909172,29.379875 7.341797,17.56836 7.369141,-17.56836 2.242187,0 0,19.90625 -1.681641,0 0,-8.667969 0.136719,-8.886718 -7.410156,17.554687 -1.298828,0 -7.382813,-17.486328 0.136719,8.763672 0,8.722656 -1.681641,0 0,-19.90625 z"
       id="path4141" /><path
       d="m 65.172844,44.391594 c -1.4e-5,-1.102859 -0.387383,-1.975579 -1.162109,-2.618164 -0.774752,-0.64257 -2.192068,-1.253247 -4.251954,-1.832031 -2.059902,-0.578766 -3.563806,-1.209951 -4.511718,-1.893555 -1.348961,-0.966134 -2.02344,-2.23306 -2.023438,-3.800781 -2e-6,-1.522119 0.626625,-2.759423 1.879883,-3.711914 1.25325,-0.952455 2.855137,-1.428691 4.805664,-1.428711 1.321605,2e-5 2.504221,0.255228 3.547852,0.765625 1.043606,0.510435 1.852525,1.221372 2.426757,2.132812 0.574204,0.911475 0.861313,1.92775 0.861329,3.048828 l -1.695313,0 c -1.4e-5,-1.358057 -0.464857,-2.449527 -1.394531,-3.274414 -0.929699,-0.824851 -2.178396,-1.237286 -3.746094,-1.237304 -1.522142,1.8e-5 -2.734381,0.339536 -3.636719,1.018554 -0.902347,0.679054 -1.353519,1.565446 -1.353515,2.65918 -4e-6,1.011733 0.405595,1.836602 1.216797,2.474609 0.811192,0.638033 2.110019,1.200858 3.896484,1.688477 1.786448,0.48764 3.139962,0.993499 4.060547,1.517578 0.920559,0.524097 1.613267,1.150724 2.078125,1.879883 0.464828,0.729173 0.69725,1.590501 0.697265,2.583984 -1.5e-5,1.567712 -0.626642,2.825523 -1.879882,3.773438 -1.253268,0.947917 -2.905285,1.421874 -4.956055,1.421875 -1.403653,-10e-7 -2.691087,-0.250651 -3.862305,-0.751953 -1.171227,-0.501302 -2.059898,-1.203124 -2.666015,-2.105469 -0.606122,-0.90234 -0.909181,-1.936845 -0.90918,-3.103516 l 1.681641,0 c -3e-6,1.40365 0.524085,2.511071 1.572265,3.322266 1.048172,0.811199 2.442702,1.216798 4.183594,1.216797 1.549469,1e-6 2.793608,-0.341796 3.732422,-1.025391 0.938789,-0.683591 1.408189,-1.590491 1.408203,-2.720703 z"
       id="path4143" /></g></g></g>
<g
   id="g5089">
</g>
<g
   id="g5091">
</g>
<g
   id="g5093">
</g>
<g
   id="g5095">
</g>
<g
   id="g5097">
</g>
<g
   id="g5099">
</g>
<g
   id="g5101">
</g>
<g
   id="g5103">
</g>
<g
   id="g5105">
</g>
<g
   id="g5107">
</g>
<g
   id="g5109">
</g>
<g
   id="g5111">
</g>
<g
   id="g5113">
</g>
<g
   id="g5115">
</g>
<g
   id="g5117">
</g>
</svg>