<?xml version="1.0" encoding="UTF-8" standalone="no"?>
<!-- Created with Inkscape (http://www.inkscape.org/) -->

<svg
   xmlns:dc="http://purl.org/dc/elements/1.1/"
   xmlns:cc="http://creativecommons.org/ns#"
   xmlns:rdf="http://www.w3.org/1999/02/22-rdf-syntax-ns#"
   xmlns:svg="http://www.w3.org/2000/svg"
   xmlns="http://www.w3.org/2000/svg"
   version="1.1"
   width="100%"
   height="100%"
   viewBox="0 0 52 52"
   id="Capa_1"
   xml:space="preserve"><metadata
   id="metadata3358"><rdf:RDF><cc:Work
       rdf:about=""><dc:format>image/svg+xml</dc:format><dc:type
         rdf:resource="http://purl.org/dc/dcmitype/StillImage" /><dc:title></dc:title></cc:Work></rdf:RDF></metadata><defs
   id="defs3356" />
<g
   id="g3316">
	<path
   d="M 26,0 C 11.664,0 0,11.663 0,26 0,40.337 11.664,52 26,52 40.336,52 52,40.337 52,26 52,11.663 40.336,0 26,0 z m 0,50 C 12.767,50 2,39.233 2,26 2,12.767 12.767,2 26,2 39.233,2 50,12.767 50,26 50,39.233 39.233,50 26,50 z"
   id="path3318"
   style="fill:#032047;fill-opacity:0.6" />
	<path
   d="m 26,10 c -0.552,0 -1,0.447 -1,1 v 22 c 0,0.553 0.448,1 1,1 0.552,0 1,-0.447 1,-1 V 11 c 0,-0.553 -0.448,-1 -1,-1 z"
   id="path3320"
   style="fill:#032047;fill-opacity:0.6" />
	<path
   d="m 26,37 c -0.552,0 -1,0.447 -1,1 v 2 c 0,0.553 0.448,1 1,1 0.552,0 1,-0.447 1,-1 v -2 c 0,-0.553 -0.448,-1 -1,-1 z"
   id="path3322"
   style="fill:#032047;fill-opacity:0.6" />
</g>
<g
   id="g3324">
</g>
<g
   id="g3326">
</g>
<g
   id="g3328">
</g>
<g
   id="g3330">
</g>
<g
   id="g3332">
</g>
<g
   id="g3334">
</g>
<g
   id="g3336">
</g>
<g
   id="g3338">
</g>
<g
   id="g3340">
</g>
<g
   id="g3342">
</g>
<g
   id="g3344">
</g>
<g
   id="g3346">
</g>
<g
   id="g3348">
</g>
<g
   id="g3350">
</g>
<g
   id="g3352">
</g>
</svg>